<?xml version="1.0" standalone="no"?>
<!DOCTYPE svg PUBLIC "-//W3C//DTD SVG 20010904//EN"
 "http://www.w3.org/TR/2001/REC-SVG-20010904/DTD/svg10.dtd">
<svg version="1.0" xmlns="http://www.w3.org/2000/svg"
 width="1024.000000pt" height="32.000000pt" viewBox="0 0 1024.000000 32.000000"
 preserveAspectRatio="xMidYMid meet">

<g transform="translate(0.000000,32.000000) scale(0.100000,-0.100000)"
fill="#000000" stroke="none">
<path d="M104 216 c-4 -9 -4 -25 -1 -36 3 -10 -1 -24 -9 -31 -27 -22 -15 -36
39 -43 79 -9 107 -7 107 7 0 7 -5 18 -12 25 -6 6 -12 26 -12 44 -1 26 -5 33
-21 33 -15 0 -20 -7 -22 -30 -2 -49 -2 -50 -15 -37 -6 6 -12 26 -12 44 -1 36
-31 52 -42 24z"/>
</g>
</svg>
